<?xml version="1.0" encoding="utf-8"?>
<svg viewBox="0 0 95 208" width="95" height="208" xmlns="http://www.w3.org/2000/svg" xmlns:bx="https://boxy-svg.com">
  <defs>
    <linearGradient gradientUnits="userSpaceOnUse" x1="4.201" y1="54.558" x2="4.201" y2="62.24" id="gradient-1" gradientTransform="matrix(1.022204, 0, 0, 1.683065, -0.999996, -37.266624)">
      <stop offset="0" style="stop-color: rgb(170, 40, 40);"/>
      <stop offset="1" style="stop-color: rgb(116, 13, 13);"/>
    </linearGradient>
    <linearGradient gradientUnits="userSpaceOnUse" x1="4.201" y1="54.558" x2="4.201" y2="62.24" id="gradient-2" gradientTransform="matrix(1.022204, 0, 0, -1.683065, 87.411919, 159.38266)">
      <stop offset="0" style="stop-color: rgb(170, 40, 40);"/>
      <stop offset="1" style="stop-color: rgb(116, 13, 13);"/>
    </linearGradient>
    <radialGradient gradientUnits="userSpaceOnUse" cx="47.5" cy="104" r="42.5" id="gradient-4" gradientTransform="matrix(-0.021019, -2.655139, 2.052166, -0.016245, -164.92684, 231.808656)" spreadMethod="reflect">
      <stop offset="0" style="stop-color: rgb(255, 0, 0);"/>
      <stop offset="0.158" style="stop-color: rgb(209, 6, 6);"/>
      <stop offset="0.529" style="stop-color: rgb(182, 17, 17);"/>
      <stop offset="0.877" style="stop-color: rgb(60, 18, 18);"/>
      <stop offset="1" style="stop-color: rgb(104, 76, 76);"/>
    </radialGradient>
    <linearGradient gradientUnits="userSpaceOnUse" x1="47.5" y1="34.632" x2="47.5" y2="190.632" id="gradient-3" spreadMethod="pad" gradientTransform="matrix(1.157044, 0, 0, 1, -7.460742, 5.368)">
      <stop offset="0" style="stop-color: rgb(57, 15, 15); stop-opacity: 0.63;"/>
      <stop offset="0.474" style="stop-color: rgba(0, 0, 0, 0.68);"/>
      <stop offset="1" style="stop-color: rgb(50, 12, 12); stop-opacity: 0.89;"/>
    </linearGradient>
    <linearGradient gradientUnits="userSpaceOnUse" x1="47.5" y1="34.632" x2="47.5" y2="190.632" id="gradient-5" spreadMethod="pad" gradientTransform="matrix(1.388453, 0, 0, 1, -18.452893, 5.368418)">
      <stop offset="0" style="stop-color: rgb(57, 15, 15); stop-opacity: 0.63;"/>
      <stop offset="0.474" style="stop-color: rgba(0, 0, 0, 0.68);"/>
      <stop offset="1" style="stop-color: rgb(50, 12, 12); stop-opacity: 0.89;"/>
    </linearGradient>
  </defs>
  <polyline style="stroke: rgb(0, 0, 0); fill: url(#gradient-1);" points="5.871 54.558 -1 66.679 7.589 67.488"/>
  <polyline style="stroke: rgb(0, 0, 0); fill: url(#gradient-2);" points="94.282 67.558 87.411 55.437 96 54.628" transform="matrix(-1, 0, 0, -1, 183.410995, 122.185997)"/>
  <path style="stroke: rgb(0, 0, 0); stroke-width: 1.5px; stroke-linecap: round; stroke-linejoin: round; fill: url(#gradient-4); fill-rule: nonzero; paint-order: fill markers;" d="M 45 0 H 50 A 40 40 0 0 1 90 40 V 178 A 30 30 0 0 1 60 208 H 35 A 30 30 0 0 1 5 178 V 40 A 40 40 0 0 1 45 0 Z" bx:shape="rect 5 0 85 208 40 40 30 30 1@12eb87bb" bx:origin="0.558824 0.5"/>
  <path style="paint-order: fill markers; stroke-linecap: round; stroke-linejoin: round; fill: rgb(183, 24, 24); opacity: 0.36; stroke-width: 2px; stroke: rgba(255, 255, 255, 0.32);" d="M 47.5 1 H 47.5 A 40 40 0 0 1 87.5 41 V 177 A 30 30 0 0 1 57.5 207 H 37.5 A 30 30 0 0 1 7.5 177 V 41 A 40 40 0 0 1 47.5 1 Z" bx:shape="rect 7.5 1 80 206 40 40 30 30 1@0d893774" bx:origin="0.558824 0.5"/>
  <path style="fill: url(#gradient-3); fill-rule: nonzero; paint-order: fill;" d="M 42.5 40 H 52.5 A 30 30 0 0 1 82.5 70 V 171 A 25 25 0 0 1 57.5 196 H 37.5 A 25 25 0 0 1 12.5 171 V 70 A 30 30 0 0 1 42.5 40 Z" bx:shape="rect 12.5 40 70 156 30 30 25 25 1@edec2d3e"/>
  <rect style="fill-rule: nonzero; paint-order: fill; fill: url(#gradient-5); opacity: 0.16;" x="5.5" y="40" width="84" height="156" rx="30" ry="30"/>
</svg>